<?xml version="1.0" encoding="UTF-8" standalone="no"?>
<!-- Created with Inkscape (http://www.inkscape.org/) -->

<svg
   width="132.88036mm"
   height="9.5704451mm"
   viewBox="0 0 132.88036 9.5704451"
   version="1.1"
   id="svg5"
   sodipodi:docname="shod.svg"
   inkscape:version="1.1.2 (0a00cf5339, 2022-02-04)"
   xmlns:inkscape="http://www.inkscape.org/namespaces/inkscape"
   xmlns:sodipodi="http://sodipodi.sourceforge.net/DTD/sodipodi-0.dtd"
   xmlns="http://www.w3.org/2000/svg"
   xmlns:svg="http://www.w3.org/2000/svg">
  <sodipodi:namedview
     id="namedview7"
     pagecolor="#ffffff"
     bordercolor="#666666"
     borderopacity="1.0"
     inkscape:pageshadow="2"
     inkscape:pageopacity="0.0"
     inkscape:pagecheckerboard="0"
     inkscape:document-units="mm"
     showgrid="false"
     fit-margin-top="0"
     fit-margin-left="0"
     fit-margin-right="0"
     fit-margin-bottom="0"
     inkscape:zoom="1.4149246"
     inkscape:cx="442.07302"
     inkscape:cy="298.60248"
     inkscape:window-width="2304"
     inkscape:window-height="1376"
     inkscape:window-x="0"
     inkscape:window-y="0"
     inkscape:window-maximized="1"
     inkscape:current-layer="layer1" />
  <defs
     id="defs2" />
  <g
     inkscape:label="Layer 1"
     inkscape:groupmode="layer"
     id="layer1"
     transform="translate(-45.212204,-77.692991)">
    <g
       aria-label="Second Hand Of Darkness"
       id="text33"
       style="font-size:10.5833px;line-height:1.25;stroke-width:0.264583">
      <path
         d="m 49.191277,77.692991 h 0.06718 q 0.542601,1.064531 1.54512,1.064531 h 0.02067 q 0.997352,0 2.480461,-1.064531 h 0.02067 q -0.63045,0.780311 -1.32808,2.129062 -0.50126,0.790647 -1.13171,1.13171 l -0.496092,0.155029 -0.02584,-0.02067 v -0.02584 q 0.459919,-0.635618 0.459919,-1.281571 v -0.02067 l -0.351398,0.02067 q -1.245399,0 -2.697502,-0.50126 v 0.02067 l -0.02067,0.52193 v 0.134358 l -0.02067,1.519282 q 0.956011,0.1757 1.653641,0.1757 h 0.149861 q 2.175571,0 3.15742,-1.52445 h 0.04134 q -0.41341,1.369421 -0.41341,2.284091 v 0.19637 q 0,0.899167 0.39274,1.111039 h 0.06718 q 0.356566,0 0.604612,-1.02319 h 0.02584 q 0.129191,0.170532 0.129191,0.48059 v 0.170531 q 0,0.58911 -1.477941,1.348751 -0.459919,0.387572 -0.78548,0.93534 -1.193721,1.477942 -2.020542,1.63297 v -0.02067 q 0.454751,-0.599445 0.454751,-0.956011 0,-0.52193 -0.759641,-0.52193 -0.82682,0 -1.477941,0.604612 -0.242878,0.32556 -0.242878,0.52193 h -0.04134 q -0.58911,-0.966346 -0.58911,-1.674311 0,-1.183386 1.52445,-2.067051 l 0.02067,0.02584 v 0.02067 q -0.196369,0.41341 -0.196369,0.780312 0,0.516762 0.284219,0.873329 0.620115,-0.30489 2.371941,-0.30489 l 0.496092,0.02067 h 0.175699 q -0.284219,-0.842323 -0.284219,-1.390091 0.02584,-0.377237 0.134358,-0.80615 -0.702797,0.175699 -1.21956,0.175699 h -0.284219 l -0.91467,-0.06718 h -0.02067 q -1.271236,0 -1.979201,1.24023 h -0.06201 q -0.242879,-0.516762 -0.242879,-1.04386 v -0.06718 q 0,-0.160197 0.10852,-0.583942 v -0.480589 q -0.05168,-0.80615 -0.387572,-0.80615 h -0.02584 q -0.294554,0 -0.82682,0.459919 h -0.04134 v -0.06718 q 0,-1.069698 0.785479,-1.415929 1.11104,-0.408243 2.237583,-1.085202 0.7183,-0.496092 0.956011,-0.93534 z"
         style="font-family:Guttural;-inkscape-font-specification:'Guttural, Normal'"
         id="path46750" />
      <path
         d="m 56.937549,79.909902 0.02067,0.02067 q -0.237711,0.330728 -0.237711,0.614948 0,0.676959 1.813837,1.033525 l 0.0155,0.0155 v 0.02067 l -1.483109,1.214393 q -0.852659,0.614947 -1.488277,0.614947 v 0.687295 q 0.661457,0.707964 1.322913,0.707964 0.253213,0 0.253213,-0.144693 0.217041,-0.831988 0.852659,-1.431433 0.258381,-0.263549 0.542601,-0.43408 v 0.0155 q -0.888832,1.074867 -0.888832,1.922358 0,0.723467 0.656289,1.395259 v 0.02067 h -0.382405 q -1.762161,0 -3.446807,-1.178219 -0.434081,-0.32556 -0.976681,-0.925005 v -0.02067 q 0.279051,0.294554 0.490924,0.294554 0.465087,0 0.558104,-0.780311 v -0.10852 q 0,-0.883664 -1.049028,-1.452103 l 0.707964,-0.397908 q 0.620116,-0.439248 1.28674,-1.271236 0.43408,-0.434081 1.431432,-0.434081 z m -1.41593,1.126543 q -0.04651,0.113688 -0.397907,0.377237 0.470254,0.873329 0.470254,1.560623 v 0.03617 q 0.651121,-0.227376 1.214393,-0.780312 l 0.12919,-0.21704 h -0.0155 Q 56.384613,81.909774 55.65081,81.160468 Z"
         style="font-family:Guttural;-inkscape-font-specification:'Guttural, Normal'"
         id="path46752" />
      <path
         d="m 61.908806,79.103753 v 0.04134 q -0.542601,0.403075 -0.542601,0.909502 0,0.542601 1.028358,0.7183 h 0.211873 q 0.744138,0 0.971513,-0.542601 l 0.02067,-0.196369 q 0,-0.170532 -0.06201,-0.330729 l 0.02067,-0.0155 h 0.02067 q 0.408243,0.449583 0.408243,0.733803 v 0.04134 q 0,0.387572 -0.604612,0.893999 -0.795815,0.981849 -0.795815,1.922357 v 0.07752 h -0.03617 v -0.330729 q 0,-1.291906 -1.400427,-1.767328 -0.645954,-0.170532 -0.987017,-0.175699 v 0.02067 q 0.50126,0.790647 0.50126,2.191074 v 0.294555 l -0.0155,0.620115 q 0.981849,0.563271 1.514115,0.563271 0.532265,0 0.852658,-0.852658 l 0.351399,-0.661456 h 0.03617 q -0.175699,1.669143 -0.289387,1.669143 -0.837156,0.754474 -0.837156,0.909502 v 0.118856 q 0,0.118855 0.19637,0.273884 v 0.0155 h -0.02067 q -0.516763,0 -2.020542,-0.52193 -1.374589,-0.60978 -1.860346,-1.63297 v -0.0155 h 0.02067 q 0.253213,0.191202 0.403074,0.191202 h 0.02067 q 0.294555,0 0.387572,-0.52193 v -0.351399 q 0,-0.873329 -0.640786,-1.6123 l -0.211872,-0.170531 q 0.465086,-0.06201 0.816485,-0.19637 0.341063,-0.165364 0.640785,-0.542601 1.028358,-1.421097 1.901687,-1.767328 z m 0.878497,5.121118 h 0.04134 v 0.165364 h -0.04134 z"
         style="font-family:Guttural;-inkscape-font-specification:'Guttural, Normal'"
         id="path46754" />
      <path
         d="m 66.456316,79.558504 q 0.1757,0.361734 0.919838,1.02319 0.651121,0.485757 1.591629,0.795814 l 0.02067,0.02067 q -0.490925,0.852658 -0.490925,1.689814 v 0.04134 q 0,0.800982 0.428913,1.674311 l -0.573607,0.186035 q -0.558103,0.191202 -1.550288,1.142045 -0.149861,0.201538 -0.32556,0.346231 -1.178219,-1.229895 -1.529618,-1.369421 -0.32556,-0.186035 -0.919837,-0.366902 0.449583,-0.878496 0.449583,-1.689813 0,-0.780312 -0.490924,-1.736323 1.100704,-0.346231 1.715652,-0.899167 0.408242,-0.341063 0.754473,-0.857826 z m -0.04134,1.121375 q -0.180867,0.459919 -0.692462,0.759641 l -0.268716,0.09819 q 0.248046,0.842323 0.248046,1.612299 v 0.08268 q 0,0.552937 -0.206705,1.266069 0.516762,0.170532 0.981849,0.795815 0.258381,-0.521931 0.899167,-0.816485 -0.206705,-0.625283 -0.206705,-1.204058 v -0.32556 q 0,-0.480589 0.222208,-1.431433 h -0.0155 q -0.50126,-0.165364 -0.738971,-0.527098 -0.149861,-0.170531 -0.180867,-0.310057 z"
         style="font-family:Guttural;-inkscape-font-specification:'Guttural, Normal'"
         id="path46756" />
      <path
         d="m 69.722258,79.28462 0.273885,-0.02067 q 0.7183,0 2.320264,1.183387 0.320393,0.160196 0.58911,0.201537 0.387572,0 0.594277,-0.635618 h 0.02067 q 0.454751,0.330728 0.454751,2.160068 v 0.227376 l -0.02067,2.025709 q 0,0.459919 0.661456,1.02319 -0.671791,0.129191 -1.00252,0.475422 -0.253213,0.361734 -0.253213,0.434081 h -0.02067 q -0.03617,0 -0.134358,-0.248046 -0.496092,-0.625283 -1.049028,-0.775144 v -0.06718 q 0.537433,0 0.749306,-1.049028 l 0.07235,-0.795814 Q 72.890014,81.83226 72.791829,81.83226 l -1.452103,-0.635618 v 3.229766 q 0.113687,0.795815 0.702797,0.795815 l 0.02584,0.02067 v 0.04651 q -0.775144,0.273884 -1.095537,0.862994 l -0.06718,0.160196 h -0.02067 q -0.356566,-0.666624 -0.976681,-0.842323 l -0.299722,-0.04134 v -0.02584 q 0.640785,-0.568439 0.640785,-0.997352 l 0.02067,-0.775144 v -0.408243 q 0,-1.684646 -0.728635,-1.684646 -0.139526,0 -0.521931,0.160196 0.217041,-0.335895 1.271236,-1.229895 0.186035,-0.284219 0.186035,-0.361734 v -0.113688 q 0,-0.273884 -0.754474,-0.682126 z"
         style="font-family:Guttural;-inkscape-font-specification:'Guttural, Normal'"
         id="path46758" />
      <path
         d="m 77.592554,77.698158 q 0.32556,0 1.793166,0.537433 l 0.372069,0.04134 q 0.490925,0 0.847491,-0.330728 h 0.02067 q -0.930172,0.883664 -0.930172,2.129063 v 0.242878 q 0,0.124023 0.950843,1.322912 0.144694,0.30489 0.144694,0.39274 h -0.02584 q -0.439248,-0.578774 -0.821652,-0.578774 h -0.04134 q -0.470254,0.113688 -0.470254,0.475422 -0.04651,0.10852 -0.04651,0.428913 v 0.248046 q 0,1.65364 0.640786,2.268588 l 0.103352,0.02067 v 0.04651 h -0.02067 q -0.496092,0 -1.545121,1.049028 -0.909502,0.80615 -1.276403,0.80615 h -0.06718 v -0.02067 q 0.165364,-0.273884 0.165364,-0.496092 v -0.02584 q 0,-0.542601 -0.888831,-0.883664 -1.875849,-1.049028 -1.875849,-2.02571 h 0.02067 q 0.397907,0.439249 0.620115,0.439249 h 0.103352 q 0.37207,-0.09302 0.37207,-0.744139 0,-0.82682 -0.537434,-1.503779 l 0.372069,-0.186035 q 0.69763,-0.547768 0.69763,-1.508947 l 0.04134,-0.04134 h 0.02584 q 0.03101,0.428913 0.532266,0.950844 0.475421,0.330728 0.930173,0.330728 0.702797,-0.08268 0.702797,-0.454751 v -0.02067 q 0,-0.434081 -0.80615,-1.033525 -0.408242,-0.449584 -0.454751,-0.7183 h 0.04651 q 0.428913,0.614947 0.883664,0.614947 h 0.04134 q 0.43408,-0.07235 0.43408,-0.449583 v -0.103353 q 0,-0.563271 -0.950843,-0.790647 l -0.39274,-0.0155 h -0.103352 q -0.351399,0 -0.82682,0.09819 v -0.03617 q 0.930172,-0.475422 1.21956,-0.475422 z m -0.78548,3.477813 v 0.506427 q 0,1.250566 -0.211872,2.247918 0.893999,0.248046 1.441767,0.780312 0.19637,-1.30741 0.19637,-2.268588 -0.02067,-0.795815 -0.05684,-1.074867 l -0.315225,0.02067 q -0.449583,0 -1.054196,-0.211873 z"
         style="font-family:Guttural;-inkscape-font-specification:'Guttural, Normal'"
         id="path46760" />
      <path
         d="m 83.798871,77.749834 q 2.408114,0 3.601836,1.421098 v 0.04651 h -0.04651 q -0.671791,0 -0.671791,1.834508 v 0.118855 q 0,0.604613 0.06718,0.604613 0.738971,0.253213 1.255733,0.253213 0.372069,-0.578774 0.372069,-1.462438 h 0.04651 q 0.175699,1.41593 0.351399,1.41593 v 0.04651 h 0.02067 q 0.428913,0 1.32808,-0.299722 v -0.976681 q 0,-1.560624 -0.697629,-1.560624 v -0.04651 q 1.167883,-1.39526 3.581165,-1.39526 v 0.02584 q -0.0052,0.04134 -0.465086,0.299722 -1.302242,0.873329 -1.302242,3.095408 0.0155,0.160197 0.04651,0.160197 0.682127,-0.253214 1.09037,-0.997352 l 0.04651,-0.09302 h 0.04651 q -0.341064,1.317744 -0.997352,1.787998 l -0.139526,0.139526 v 1.534786 h 0.113688 q 0.32556,0 0.769976,-0.604613 h 0.04651 q 0,0.232543 -0.583942,1.116208 l -0.299722,0.279051 v 0.351399 h 0.160196 q 0.599445,0 1.534785,-1.049028 v 0.04651 q -1.684646,3.420969 -3.7672,3.420969 h -0.09302 v -0.02584 q 0.956011,-0.713132 0.956011,-3.136749 l -0.02584,-1.348751 h -0.02067 q -0.620115,0.232543 -1.302242,0.346231 -0.372069,0.651121 -0.372069,1.793167 h -0.04651 q -0.124023,-1.493444 -0.37207,-1.746658 l -0.02584,-0.06718 h -0.113687 q -0.532266,0 -1.255734,-0.325561 v 0.02067 l -0.02584,1.302242 q 0,2.37194 0.976682,3.162587 v 0.02584 h -0.139526 q -1.912022,0 -3.555328,-3.095408 -0.165364,-0.299722 -0.165364,-0.372069 0.868162,1.069699 1.627803,1.069699 h 0.02584 l 0.06718,-0.02067 v -0.32556 q -0.63045,-0.573607 -0.790647,-1.142046 l -0.09302,-0.253214 h 0.04651 q 0.428913,0.604613 0.816485,0.604613 h 0.04651 V 82.168155 Q 84.687703,81.54804 84.356975,80.333648 v -0.09302 q 0.573606,0.919837 1.162716,1.090369 h 0.04651 v -0.279052 q 0,-2.428785 -1.767328,-3.229767 z"
         style="font-family:Guttural;-inkscape-font-specification:'Guttural, Normal'"
         id="path46762" />
      <path
         d="m 95.302009,79.708365 v 0.02067 q -0.356566,0.30489 -0.356566,0.527097 0.09302,0.475422 0.697629,0.475422 h 0.09302 q 0.697629,0 1.059363,-0.759641 h 0.05684 q 0.614948,1.322912 1.250566,1.322912 h 0.186034 l 0.02067,-0.0155 h 0.02067 v 0.0155 q -0.294554,0.155029 -0.454751,0.547769 -0.206705,0.666624 -0.206705,1.250566 0,1.193721 0.490925,1.700149 l 0.186034,0.134358 q -0.60978,0.335896 -0.888832,1.188554 -0.05684,0.341064 -0.09302,0.341064 -0.506427,-1.209225 -1.457271,-1.209225 -0.682126,0 -0.775144,0.625283 0,0.211872 0.155029,0.43408 v 0.0155 q -0.7183,-0.19637 -1.043861,-0.661456 -0.377236,-0.397907 -0.377236,-1.622635 0,-0.201537 -0.356567,-0.43408 l -0.248046,-0.211873 0.02067,-0.0155 0.134358,0.0155 h 0.10852 q 0.69763,0 1.457271,-0.961179 h 0.02067 q 0.635618,0.547769 1.550288,0.547769 h 0.09302 v -0.02067 q -0.07751,-0.330728 -0.07751,-0.568439 v -0.242878 q 0,-0.211873 0.05684,-0.475422 -0.687294,-0.186034 -1.167883,-0.186034 h -0.07751 q -1.059363,0 -1.059363,0.945675 v 0.09302 l -0.02067,0.02067 0.02067,0.0155 v 0.191202 h -0.02067 q -0.09819,-0.06718 -0.392739,-0.909502 -0.341064,-0.604612 -0.645954,-0.604612 l -0.149861,-0.03617 v -0.03617 q 0.320393,-0.0155 1.550288,-1.173052 0.346231,-0.268716 0.640786,-0.284219 z m -0.186035,3.612171 q -0.05684,0.248046 -0.05684,0.676959 v 0.04134 q 0,0.568439 0.170531,0.790647 l 1.607132,-0.09302 q -0.211873,-0.578774 -0.211873,-1.116208 h -0.0155 q -0.738971,0 -1.493445,-0.299722 z"
         style="font-family:Guttural;-inkscape-font-specification:'Guttural, Normal'"
         id="path46764" />
      <path
         d="m 99.048541,79.28462 0.273884,-0.02067 q 0.718305,0 2.320265,1.183387 0.32039,0.160196 0.58911,0.201537 0.38757,0 0.59428,-0.635618 h 0.0207 q 0.45475,0.330728 0.45475,2.160068 v 0.227376 l -0.0207,2.025709 q 0,0.459919 0.66145,1.02319 -0.67179,0.129191 -1.00252,0.475422 -0.25321,0.361734 -0.25321,0.434081 h -0.0207 q -0.0362,0 -0.13436,-0.248046 -0.49609,-0.625283 -1.04903,-0.775144 v -0.06718 q 0.53744,0 0.74931,-1.049028 l 0.0724,-0.795814 q -0.0879,-1.591629 -0.18604,-1.591629 l -1.4521,-0.635618 v 3.229766 q 0.11369,0.795815 0.7028,0.795815 l 0.0258,0.02067 v 0.04651 q -0.77514,0.273884 -1.09553,0.862994 l -0.0672,0.160196 h -0.0207 q -0.356569,-0.666624 -0.976684,-0.842323 l -0.299723,-0.04134 v -0.02584 q 0.640786,-0.568439 0.640786,-0.997352 l 0.02067,-0.775144 v -0.408243 q 0,-1.684646 -0.728635,-1.684646 -0.139526,0 -0.52193,0.160196 0.21704,-0.335895 1.271236,-1.229895 0.186034,-0.284219 0.186034,-0.361734 v -0.113688 q 0,-0.273884 -0.754473,-0.682126 z"
         style="font-family:Guttural;-inkscape-font-specification:'Guttural, Normal'"
         id="path46766" />
      <path
         d="m 106.91883,77.698158 q 0.32556,0 1.79317,0.537433 l 0.37207,0.04134 q 0.49092,0 0.84749,-0.330728 h 0.0207 q -0.93017,0.883664 -0.93017,2.129063 v 0.242878 q 0,0.124023 0.95084,1.322912 0.1447,0.30489 0.1447,0.39274 h -0.0258 q -0.43925,-0.578774 -0.82166,-0.578774 h -0.0413 q -0.47025,0.113688 -0.47025,0.475422 -0.0465,0.10852 -0.0465,0.428913 v 0.248046 q 0,1.65364 0.64079,2.268588 l 0.10335,0.02067 v 0.04651 h -0.0207 q -0.49609,0 -1.54512,1.049028 -0.9095,0.80615 -1.27641,0.80615 h -0.0672 v -0.02067 q 0.16537,-0.273884 0.16537,-0.496092 v -0.02584 q 0,-0.542601 -0.88883,-0.883664 -1.87585,-1.049028 -1.87585,-2.02571 h 0.0207 q 0.39791,0.439249 0.62011,0.439249 h 0.10336 q 0.37207,-0.09302 0.37207,-0.744139 0,-0.82682 -0.53744,-1.503779 l 0.37207,-0.186035 q 0.69763,-0.547768 0.69763,-1.508947 l 0.0413,-0.04134 h 0.0258 q 0.031,0.428913 0.53227,0.950844 0.47542,0.330728 0.93017,0.330728 0.7028,-0.08268 0.7028,-0.454751 v -0.02067 q 0,-0.434081 -0.80615,-1.033525 -0.40825,-0.449584 -0.45475,-0.7183 h 0.0465 q 0.42892,0.614947 0.88367,0.614947 h 0.0413 q 0.43408,-0.07235 0.43408,-0.449583 v -0.103353 q 0,-0.563271 -0.95084,-0.790647 l -0.39274,-0.0155 h -0.10336 q -0.35139,0 -0.82682,0.09819 v -0.03617 q 0.93018,-0.475422 1.21956,-0.475422 z m -0.78548,3.477813 v 0.506427 q 0,1.250566 -0.21187,2.247918 0.894,0.248046 1.44177,0.780312 0.19637,-1.30741 0.19637,-2.268588 -0.0207,-0.795815 -0.0568,-1.074867 l -0.31523,0.02067 q -0.44958,0 -1.0542,-0.211873 z"
         style="font-family:Guttural;-inkscape-font-specification:'Guttural, Normal'"
         id="path46768" />
      <path
         d="m 117.35228,77.734332 q 1.79833,1.968865 3.15742,1.968865 h 0.10335 q 0.55293,0 1.05936,-0.372069 l 0.0258,0.02584 q -0.18087,0.764809 -0.63045,1.162716 l -0.14986,0.108521 q 0.27905,0.635618 0.27905,1.255733 -0.0103,0.366901 -0.062,0.366901 h -0.0207 q -0.22738,-0.800982 -0.52193,-0.800982 -0.36174,0 -0.42891,1.446936 l 0.0207,0.997352 v 0.191202 q 0,0.346231 0.21704,0.346231 0.27905,-0.02067 0.64595,-0.692462 h 0.0207 v 0.06718 q 0,0.676959 -0.5581,1.576126 0.62528,0.552936 0.62528,1.100705 v 0.08785 l -0.0207,0.108521 h -0.0465 q -0.96118,-0.713133 -1.74666,-0.713133 h -0.26355 q -1.01802,0 -1.70531,1.297074 h -0.0207 q -0.59428,-1.338415 -1.86035,-1.338415 -0.84232,0 -1.81384,0.713133 -0.0465,0 -0.062,-0.19637 0,-0.496092 0.62528,-1.121375 -0.56327,-0.935341 -0.56327,-1.555456 l 0.0207,-0.08785 h 0.0465 q 0.29456,0.692462 0.58394,0.692462 h 0.12919 q 0.0465,0 0.10852,-0.175699 l 0.0207,-1.271236 v -0.06718 q -0.0517,-1.446936 -0.41341,-1.446936 h -0.0207 q -0.26871,0 -0.51676,0.800982 h -0.0465 l -0.0207,-0.32556 v -0.08785 q 0,-0.568439 0.25838,-1.229895 -0.44958,-0.268717 -0.71313,-1.059363 l -0.0413,-0.217041 h 0.0207 q 0.54777,0.366902 1.01802,0.366902 h 0.27906 q 1.21439,0 2.98172,-1.922357 z m -2.01021,2.723339 q 0.34623,1.379756 0.34623,3.260772 l -0.0207,0.325561 q 0.57877,-0.454751 1.08003,-1.100705 0.20154,-0.346231 0.25839,-0.52193 h 0.0465 q 0,0.707965 -0.71313,2.165236 0.1757,0.361734 0.88367,0.625283 l 0.14986,0.04134 q 0.86299,-0.279052 1.03869,-0.625283 -0.63045,-1.162716 -0.7338,-2.160068 h 0.0413 q 0.16019,0.459918 0.82165,1.167883 l 0.51676,0.449584 v -0.625283 q 0,-1.648473 0.34623,-2.96105 -0.43924,-0.05168 -0.97151,-0.496092 l -0.25838,-0.258382 h -0.0207 q -0.78031,1.007688 -0.78031,2.201409 h -0.0413 v -0.06201 q 0,-1.214392 -0.75448,-2.206577 -0.69246,0.713133 -1.05936,0.713133 l -0.0672,0.02067 -0.0207,0.02584 z"
         style="font-family:Guttural;-inkscape-font-specification:'Guttural, Normal'"
         id="path46770" />
      <path
         d="m 124.14253,78.726516 q 0.35657,0.10852 1.04386,0.754473 0.75448,0.894 1.01803,0.919838 0.45475,-0.63045 1.20922,-1.162716 v 0.02067 q -1.16788,1.322913 -1.16788,3.043733 v 0.408242 h -0.0413 q -0.7028,-2.433952 -2.04122,-2.433952 l -0.3824,0.08268 0.72863,1.860346 q 0.24805,-0.04134 0.8785,-0.552936 h 0.0207 q -0.21187,0.63045 -0.79581,1.04386 v 0.02067 q 0,1.917189 0.1912,2.635489 0.87333,0.201538 1.05419,0.201538 l 0.10336,-0.02067 h 0.0207 v 0.02067 l -0.59428,0.263549 q -0.48576,0.30489 -0.48576,0.656288 0,0.320393 0.42892,0.754474 l -0.0207,0.02067 h -0.0207 q -0.92501,-0.149861 -2.24792,-0.961178 -0.37207,-0.242879 -0.71313,-0.532266 v -0.0155 h 0.0155 l 0.10335,0.0155 q 0.73897,0 0.73897,-1.612299 0,-0.521931 -0.062,-0.976682 -0.37724,0 -0.89917,0.527098 h -0.0207 v -0.02067 q 0.34623,-0.733803 0.94051,-1.059364 -0.31006,-1.410762 -0.81648,-1.410762 h -0.0413 q -0.21704,0 -0.5736,0.325561 h -0.0207 v -0.02067 q 0,-0.41341 0.38757,-0.93534 0.22737,-0.139526 1.10587,-0.532266 0.93534,-0.563271 0.93534,-1.105872 v -0.09819 l -0.0207,-0.103353 0.0207,-0.02067 z"
         style="font-family:Guttural;-inkscape-font-specification:'Guttural, Normal'"
         id="path46772" />
      <path
         d="m 130.92247,77.734332 h 0.0258 q 0.90434,1.21956 1.58646,1.390091 0.81649,-0.191202 2.1394,-1.343583 h 0.0207 q 1.47278,1.343583 1.788,1.870681 l 0.68213,0.930173 0.22221,0.04134 q 0.5426,0 1.14721,-0.702797 h 0.0207 q -0.19637,1.24023 -0.50643,2.294426 -0.72347,2.3306 -2.44945,4.252957 -0.6873,0.687294 -0.85783,0.795814 h -0.0465 q 0,-0.578774 -1.03352,-1.080034 -0.38757,-0.113687 -0.64079,-0.113687 -0.48576,0 -0.48576,0.356566 v 0.06718 q 0,0.268717 0.24288,0.661456 l -0.0207,0.02067 q -0.40307,-0.04134 -1.12654,-0.506428 -0.77514,-0.7183 -1.01285,-1.52445 -0.44442,-1.21956 -0.44442,-2.005039 l -0.0207,-0.08785 h 0.0465 q 0.63045,1.694981 1.32291,1.694981 0.29455,-0.02584 0.61495,-0.330728 l 0.0465,-1.74149 q -0.30489,0 -0.72864,-0.351399 -0.31522,-0.330728 -0.46509,-0.661456 l 0.0207,-0.02067 h 0.0258 q 0.53744,0.439249 1.03353,0.439249 l 0.0258,-0.02067 v -0.04651 q 0,-1.384924 -1.17305,-4.278795 z m 1.92235,2.247917 q 0.15503,0.723468 0.15503,1.565791 v 0.268717 l -0.0258,0.263549 0.0258,0.02067 h 0.0207 l 1.65364,0.04651 v 0.04134 l -1.6123,0.532265 -0.0207,0.37207 v 0.02584 q 0,0.91467 0.3514,1.93786 h 0.22221 q 0.40824,0 1.16788,0.552936 h 0.0258 q 0.93017,-0.795815 1.30224,-1.457271 0.68213,-1.364253 0.68213,-2.449455 l 0.0207,-0.155029 q -0.59428,-0.583942 -1.80867,-2.051548 l -0.43925,-0.372069 h -0.0465 q -0.99218,0.69763 -1.67431,0.857826 z"
         style="font-family:Guttural;-inkscape-font-specification:'Guttural, Normal'"
         id="path46774" />
      <path
         d="m 140.76162,79.708365 v 0.02067 q -0.35656,0.30489 -0.35656,0.527097 0.093,0.475422 0.69763,0.475422 h 0.093 q 0.69763,0 1.05937,-0.759641 h 0.0568 q 0.61495,1.322912 1.25057,1.322912 h 0.18603 l 0.0207,-0.0155 h 0.0207 v 0.0155 q -0.29455,0.155029 -0.45475,0.547769 -0.2067,0.666624 -0.2067,1.250566 0,1.193721 0.49092,1.700149 l 0.18603,0.134358 q -0.60978,0.335896 -0.88883,1.188554 -0.0568,0.341064 -0.093,0.341064 -0.50643,-1.209225 -1.45727,-1.209225 -0.68213,0 -0.77515,0.625283 0,0.211872 0.15503,0.43408 v 0.0155 q -0.7183,-0.19637 -1.04386,-0.661456 -0.37724,-0.397907 -0.37724,-1.622635 0,-0.201537 -0.35656,-0.43408 l -0.24805,-0.211873 0.0207,-0.0155 0.13436,0.0155 h 0.10852 q 0.69763,0 1.45727,-0.961179 h 0.0207 q 0.63562,0.547769 1.55029,0.547769 h 0.093 v -0.02067 q -0.0775,-0.330728 -0.0775,-0.568439 v -0.242878 q 0,-0.211873 0.0568,-0.475422 -0.6873,-0.186034 -1.16789,-0.186034 h -0.0775 q -1.05937,0 -1.05937,0.945675 v 0.09302 l -0.0207,0.02067 0.0207,0.0155 v 0.191202 h -0.0207 q -0.0982,-0.06718 -0.39274,-0.909502 -0.34106,-0.604612 -0.64595,-0.604612 l -0.14986,-0.03617 v -0.03617 q 0.32039,-0.0155 1.55029,-1.173052 0.34623,-0.268716 0.64078,-0.284219 z m -0.18603,3.612171 q -0.0568,0.248046 -0.0568,0.676959 v 0.04134 q 0,0.568439 0.17054,0.790647 l 1.60713,-0.09302 q -0.21187,-0.578774 -0.21187,-1.116208 h -0.0155 q -0.73897,0 -1.49344,-0.299722 z"
         style="font-family:Guttural;-inkscape-font-specification:'Guttural, Normal'"
         id="path46776" />
      <path
         d="m 145.13343,79.579174 h 0.0413 q 0,0.434081 0.4961,0.971514 0.3824,0.289387 0.64078,0.289387 0.45475,-0.05684 0.45475,-0.43408 V 80.21996 q 0,-0.144693 -0.14469,-0.620115 h 0.0207 q 0.83716,0.397907 1.65364,1.074866 0.19637,0.149861 0.41341,0.764809 l 0.1447,0.144694 h 0.0827 q 0.13436,0 0.3514,-0.39274 h 0.0207 v 0.41341 q 0,0.454751 -0.41341,0.558104 -0.97669,0.423745 -1.2609,1.178219 l -0.0207,0.06201 h -0.0413 q 0.10336,-0.599445 0.10336,-1.054196 0,-1.095537 -0.72347,-1.095537 -0.27905,0 -0.78548,0.206705 v 0.475422 q 0,3.482981 1.17822,4.299466 l 0.39274,0.124023 v 0.04134 l -0.41341,0.02067 h -0.66146 q -1.63814,0 -2.48046,-1.343583 l 0.0207,-0.02067 h 0.0207 q 0.10335,0.06201 0.26872,0.06201 h 0.0827 q 0.49609,0 0.49609,-1.157548 0,-0.883664 -0.26871,-2.191074 -0.0982,-0.134358 -0.26872,-0.165364 -0.43925,0 -0.62012,0.80615 v 0.02067 h -0.0207 q -0.0827,0 -0.12402,-0.599444 0,-0.604613 0.64079,-1.095537 0.72346,-0.816485 0.72346,-1.157549 z"
         style="font-family:Guttural;-inkscape-font-specification:'Guttural, Normal'"
         id="path46778" />
      <path
         d="m 152.69884,77.734332 q 0.34106,0 1.20922,0.506427 v 0.02584 q -0.44441,-0.10852 -0.82682,-0.10852 h -0.12402 q -1.00769,0 -1.31774,0.614948 l -0.0413,0.191202 v 0.149861 q 0.0775,0.444416 0.44442,0.444416 h 0.0827 q 0.40825,0 0.87333,-0.635618 h 0.0413 q -0.11369,0.50126 -0.97668,1.167883 -0.36173,0.418578 -0.36173,0.800983 v 0.06718 q 0,0.490924 0.59427,0.547768 h 0.19121 q 0.82682,-0.139526 0.82682,-0.780312 l -0.0827,-0.423745 h 0.0413 q 0.39274,0.242879 0.84749,1.333248 0.1912,0.423745 0.47025,0.423745 0.21704,-0.05684 0.46509,-0.294555 l 0.0207,0.02067 v 0.294555 q 0,0.661456 -1.29191,1.147213 l -0.12919,0.124023 v 0.02584 h 0.14986 q 0.58911,0 1.16272,-0.511595 l 0.0207,0.02067 q -0.35657,0.956011 -0.35657,1.59163 0,0.671791 0.40308,0.744138 h 0.062 q 0.28939,0 0.74414,-0.511595 h 0.0207 v 0.02067 q -0.5271,1.235063 -2.10323,1.886184 -1.06453,0.382404 -1.2919,0.382404 v -0.04134 q 1.25056,-0.501259 1.25056,-1.612299 0,-0.635618 -0.35656,-1.291907 -0.66663,-0.211873 -1.20923,-0.211873 v 0.02067 l -0.0258,0.232543 v 0.06201 q 0,0.449583 0.5116,1.018022 v 0.06718 q -0.64596,0.237711 -1.01802,0.868162 l -0.0827,0.170531 h -0.0672 q 0,-0.211872 -0.73897,-0.785479 -0.40307,-0.237711 -0.40307,-0.273884 0.73897,-0.847491 0.73897,-2.103224 -0.0362,-1.281572 -0.7183,-1.52445 h -0.14986 q -0.31006,0 -0.80615,0.614947 l -0.0207,-0.02067 q 0.0465,-0.346231 0.99735,-1.483109 0.14986,-0.191202 0.14986,-0.341063 v -0.04134 q 0,-1.364254 -0.80615,-2.165236 l -0.0672,-0.08268 h 0.0207 q 0.36174,0.253214 0.76481,0.253214 0.40824,0 1.8035,-0.532266 z m -3.19876,0.191202 0.0827,0.08268 h -0.0207 l -0.062,-0.06201 z m 2.81636,3.942899 q -0.1447,0 -0.29456,-0.06201 0.10335,0.428914 0.10335,1.209225 v 0.273884 q 0.25838,-0.08268 0.57361,-0.08268 h 0.27905 l 0.48576,-0.444416 q -0.20154,-0.273884 -0.48576,-1.038693 h -0.0207 q -0.39274,0.144694 -0.64078,0.144694 z"
         style="font-family:Guttural;-inkscape-font-specification:'Guttural, Normal'"
         id="path46780" />
      <path
         d="m 156.55389,79.28462 0.27388,-0.02067 q 0.7183,0 2.32027,1.183387 0.32039,0.160196 0.58911,0.201537 0.38757,0 0.59427,-0.635618 h 0.0207 q 0.45476,0.330728 0.45476,2.160068 v 0.227376 l -0.0207,2.025709 q 0,0.459919 0.66145,1.02319 -0.67179,0.129191 -1.00252,0.475422 -0.25321,0.361734 -0.25321,0.434081 h -0.0207 q -0.0362,0 -0.13436,-0.248046 -0.49609,-0.625283 -1.04903,-0.775144 v -0.06718 q 0.53743,0 0.74931,-1.049028 l 0.0723,-0.795814 q -0.0879,-1.591629 -0.18603,-1.591629 l -1.4521,-0.635618 v 3.229766 q 0.11368,0.795815 0.70279,0.795815 l 0.0258,0.02067 v 0.04651 q -0.77514,0.273884 -1.09554,0.862994 l -0.0672,0.160196 h -0.0207 q -0.35657,-0.666624 -0.97669,-0.842323 l -0.29972,-0.04134 v -0.02584 q 0.64079,-0.568439 0.64079,-0.997352 l 0.0207,-0.775144 v -0.408243 q 0,-1.684646 -0.72864,-1.684646 -0.13952,0 -0.52193,0.160196 0.21704,-0.335895 1.27124,-1.229895 0.18603,-0.284219 0.18603,-0.361734 v -0.113688 q 0,-0.273884 -0.75447,-0.682126 z"
         style="font-family:Guttural;-inkscape-font-specification:'Guttural, Normal'"
         id="path46782" />
      <path
         d="m 164.87894,79.909902 0.0207,0.02067 q -0.23771,0.330728 -0.23771,0.614948 0,0.676959 1.81384,1.033525 l 0.0155,0.0155 v 0.02067 l -1.48311,1.214393 q -0.85266,0.614947 -1.48827,0.614947 v 0.687295 q 0.66145,0.707964 1.32291,0.707964 0.25321,0 0.25321,-0.144693 0.21704,-0.831988 0.85266,-1.431433 0.25838,-0.263549 0.5426,-0.43408 v 0.0155 q -0.88883,1.074867 -0.88883,1.922358 0,0.723467 0.65629,1.395259 v 0.02067 h -0.38241 q -1.76216,0 -3.4468,-1.178219 -0.43408,-0.32556 -0.97669,-0.925005 v -0.02067 q 0.27906,0.294554 0.49093,0.294554 0.46509,0 0.5581,-0.780311 v -0.10852 q 0,-0.883664 -1.04903,-1.452103 l 0.70797,-0.397908 q 0.62011,-0.439248 1.28674,-1.271236 0.43408,-0.434081 1.43143,-0.434081 z m -1.41593,1.126543 q -0.0465,0.113688 -0.39791,0.377237 0.47026,0.873329 0.47026,1.560623 v 0.03617 q 0.65112,-0.227376 1.21439,-0.780312 l 0.12919,-0.21704 h -0.0155 q -0.53743,-0.103353 -1.27124,-0.852659 z"
         style="font-family:Guttural;-inkscape-font-specification:'Guttural, Normal'"
         id="path46784" />
      <path
         d="m 169.28692,79.822053 h 0.0465 q 0.37207,0.73897 1.0697,0.73897 h 0.0155 q 0.69246,0 1.72082,-0.73897 h 0.0155 q -0.43925,0.537433 -0.91983,1.477941 -0.3514,0.547769 -0.78548,0.785479 l -0.34624,0.103353 -0.0155,-0.0155 v -0.0155 q 0.31523,-0.439248 0.31523,-0.888832 v -0.0155 l -0.24288,0.0155 q -0.86299,0 -1.86551,-0.346231 v 0.0155 l -0.0155,0.361734 v 0.08785 l -0.0155,1.059363 q 0.66146,0.118856 1.14721,0.118856 h 0.10336 q 1.50377,0 2.1859,-1.054196 h 0.031 q -0.28422,0.945675 -0.28422,1.581294 v 0.134358 q 0,0.625283 0.26871,0.769976 h 0.0465 q 0.24805,0 0.42375,-0.707965 h 0.0103 q 0.093,0.118856 0.093,0.330728 v 0.124024 q 0,0.408242 -1.02319,0.93534 -0.32039,0.268717 -0.54777,0.645953 -0.82682,1.02319 -1.40042,1.131711 v -0.0155 q 0.31522,-0.41341 0.31522,-0.661457 0,-0.361733 -0.5271,-0.361733 -0.56844,0 -1.02319,0.418577 -0.16536,0.227376 -0.16536,0.361734 h -0.031 q -0.40824,-0.671791 -0.40824,-1.157548 0,-0.82682 1.0542,-1.4366 l 0.0155,0.0155 v 0.0155 q -0.13436,0.289387 -0.13436,0.542601 0,0.356566 0.19637,0.604613 0.42891,-0.211873 1.64331,-0.211873 l 0.34623,0.0155 h 0.11885 q -0.19637,-0.583942 -0.19637,-0.966347 0.0155,-0.258381 0.093,-0.558103 -0.48576,0.124023 -0.84232,0.124023 h -0.19637 l -0.63562,-0.04651 h -0.0155 q -0.8785,0 -1.37459,0.857826 h -0.0413 q -0.16537,-0.356566 -0.16537,-0.723468 v -0.04651 q 0,-0.113688 0.0724,-0.403075 v -0.335896 q -0.0362,-0.558103 -0.26872,-0.558103 h -0.0155 q -0.20671,0 -0.57361,0.320392 h -0.031 v -0.04651 q 0,-0.744139 0.5426,-0.981849 0.76997,-0.28422 1.55545,-0.754474 0.4961,-0.341063 0.66146,-0.645953 z"
         style="font-family:Guttural;-inkscape-font-specification:'Guttural, Normal'"
         id="path46786" />
      <path
         d="m 175.09017,79.822053 h 0.0465 q 0.37207,0.73897 1.0697,0.73897 h 0.0155 q 0.69246,0 1.72082,-0.73897 h 0.0155 q -0.43925,0.537433 -0.91984,1.477941 -0.3514,0.547769 -0.78548,0.785479 l -0.34623,0.103353 -0.0155,-0.0155 v -0.0155 q 0.31522,-0.439248 0.31522,-0.888832 v -0.0155 l -0.24288,0.0155 q -0.86299,0 -1.86551,-0.346231 v 0.0155 l -0.0155,0.361734 v 0.08785 l -0.0155,1.059363 q 0.66145,0.118856 1.14721,0.118856 h 0.10335 q 1.50378,0 2.18591,-1.054196 h 0.031 q -0.28422,0.945675 -0.28422,1.581294 v 0.134358 q 0,0.625283 0.26872,0.769976 h 0.0465 q 0.24804,0 0.42374,-0.707965 h 0.0103 q 0.093,0.118856 0.093,0.330728 v 0.124024 q 0,0.408242 -1.02319,0.93534 -0.3204,0.268717 -0.54777,0.645953 -0.82682,1.02319 -1.40043,1.131711 v -0.0155 q 0.31523,-0.41341 0.31523,-0.661457 0,-0.361733 -0.5271,-0.361733 -0.56844,0 -1.02319,0.418577 -0.16537,0.227376 -0.16537,0.361734 h -0.031 q -0.40824,-0.671791 -0.40824,-1.157548 0,-0.82682 1.05419,-1.4366 l 0.0155,0.0155 v 0.0155 q -0.13435,0.289387 -0.13435,0.542601 0,0.356566 0.19637,0.604613 0.42891,-0.211873 1.6433,-0.211873 l 0.34623,0.0155 h 0.11886 q -0.19637,-0.583942 -0.19637,-0.966347 0.0155,-0.258381 0.093,-0.558103 -0.48576,0.124023 -0.84233,0.124023 h -0.19637 l -0.63562,-0.04651 h -0.0155 q -0.87849,0 -1.37459,0.857826 h -0.0413 q -0.16536,-0.356566 -0.16536,-0.723468 v -0.04651 q 0,-0.113688 0.0723,-0.403075 v -0.335896 q -0.0362,-0.558103 -0.26871,-0.558103 h -0.0155 q -0.20671,0 -0.57361,0.320392 h -0.031 v -0.04651 q 0,-0.744139 0.5426,-0.981849 0.76998,-0.28422 1.55546,-0.754474 0.49609,-0.341063 0.66146,-0.645953 z"
         style="font-family:Guttural;-inkscape-font-specification:'Guttural, Normal'"
         id="path46788" />
    </g>
  </g>
</svg>
