<svg xmlns="http://www.w3.org/2000/svg" xmlns:xlink="http://www.w3.org/1999/xlink" version="1.1" x="0px" y="0px" viewBox="0 0 100 100" enable-background="new 0 0 100 100" xml:space="preserve"><g><g><path fill="#000000" d="M66.638,72.894c1.881,5.639,0.934,7.342-2.265,9.787c-3.186,2.443-12.396,2.443-12.396,2.443h-3.952    c0,0-9.212,0-12.41-2.443c-3.199-2.445-4.132-4.148-2.251-9.787c1.88-5.656,9.887-18.052,11.462-24.667    c0-1.022,2.317-1.841,5.168-1.841s5.168,0.818,5.168,1.841C56.736,54.842,64.757,67.237,66.638,72.894z M71.411,90.845    C66.394,94.699,55.679,95,52.514,95h-5.039c-3.164,0-13.869-0.302-18.895-4.162C22.348,86.07,21.147,81.343,24,72.779    c1.163-3.506,3.762-8.423,6.516-13.633c3.284-6.212,7.006-13.253,8-17.437c1.168-4.929,0.552-20.599-0.115-29.385    c0.009,0.11,0.022,0.226,0.04,0.344c-0.042-0.298-0.061-0.574-0.061-0.812C38.379,9.795,39.511,5,49.994,5    c10.483,0,11.615,4.795,11.615,6.857c0,0.239-0.018,0.517-0.062,0.817c0.018-0.121,0.032-0.239,0.041-0.351    c-0.667,8.789-1.283,24.461-0.114,29.387c0.996,4.191,4.728,11.248,8.021,17.471c2.744,5.192,5.34,10.098,6.507,13.597    C78.855,81.342,77.654,86.07,71.411,90.845z M43.185,12.074c0,1.042,3.047,1.899,6.81,1.899c3.76,0,6.811-0.857,6.811-1.899    c0-1.057-3.051-1.901-6.811-1.901C46.231,10.172,43.185,11.017,43.185,12.074z M71.245,74.365    c-2.407-7.217-12.641-23.042-14.648-31.498c-1.21-5.098-0.785-17.446-0.382-24.932c-1.578,0.479-3.608,0.777-6.221,0.777    c-2.611,0-4.641-0.298-6.218-0.776c0.402,7.486,0.826,19.834-0.382,24.932c-2.009,8.456-12.243,24.281-14.638,31.498    c-2.403,7.214-1.201,9.376,2.88,12.498c4.082,3.136,15.839,3.123,15.839,3.123h5.037c0,0,11.771,0.013,15.854-3.123    C72.446,83.741,73.649,81.579,71.245,74.365z"/></g></g></svg>