<?xml version="1.0" encoding="UTF-8" standalone="no"?>
<svg xmlns:dc="http://purl.org/dc/elements/1.1/" xmlns:cc="http://creativecommons.org/ns#" xmlns:rdf="http://www.w3.org/1999/02/22-rdf-syntax-ns#" xmlns:svg="http://www.w3.org/2000/svg" xmlns="http://www.w3.org/2000/svg" xmlns:sodipodi="http://sodipodi.sourceforge.net/DTD/sodipodi-0.dtd" xmlns:inkscape="http://www.inkscape.org/namespaces/inkscape" version="1.1" x="0px" y="0px" viewBox="0 0 88.125 103.00002" id="svg3492" inkscape:version="0.91 r13725" sodipodi:docname="noun_1642368_cc.svg" width="88.125" height="103.00002">
  <metadata id="metadata3506">
    <rdf:RDF>
      <cc:Work rdf:about="">
        <dc:format>image/svg+xml</dc:format>
        <dc:type rdf:resource="http://purl.org/dc/dcmitype/StillImage"/>
        <dc:title/>
      </cc:Work>
    </rdf:RDF>
  </metadata>
  <defs id="defs3504"/>
  <sodipodi:namedview pagecolor="#ffffff" bordercolor="#666666" borderopacity="1" objecttolerance="10" gridtolerance="10" guidetolerance="10" inkscape:pageopacity="0" inkscape:pageshadow="2" inkscape:window-width="640" inkscape:window-height="480" id="namedview3502" showgrid="false" fit-margin-top="10" fit-margin-left="10" fit-margin-right="10" fit-margin-bottom="10" inkscape:zoom="1.888" inkscape:cx="44.0625" inkscape:cy="39.00002" inkscape:window-x="404" inkscape:window-y="186" inkscape:window-maximized="0" inkscape:current-layer="svg3492"/>
  <g transform="translate(-5.9375,-950.86218)" id="g3494">
    <path style="color:#000000;text-indent:0;text-transform:none;direction:ltr;block-progression:tb;baseline-shift:baseline;display:inline;overflow:visible;visibility:visible;fill:#000000;fill-opacity:1;stroke:none;marker:none;enable-background:accumulate" d="m 19.09375,960.86218 c -1.81873,0 -3.15625,1.65712 -3.15625,3.46875 l 0,76.09377 c 0,1.8117 1.33752,3.4375 3.15625,3.4375 l 61.84375,0 c 1.81876,0 3.125,-1.6258 3.125,-3.4375 l 0,-76.09377 c 0,-1.81164 -1.30624,-3.46875 -3.125,-3.46875 l -61.84375,0 z m 0,2.3125 61.84375,0 c 0.39272,0 0.84375,0.41319 0.84375,1.15625 l 0,76.09377 c 0,0.7432 -0.45103,1.1562 -0.84375,1.1562 l -61.84375,0 c -0.39259,0 -0.84375,-0.413 -0.84375,-1.1562 l 0,-76.09377 c 0,-0.74307 0.45116,-1.15625 0.84375,-1.15625 z m 4.78125,7.59375 c -0.55983,0.10284 -0.99184,0.6834 -0.9375,1.25 0.0543,0.5666 0.58708,1.03667 1.15625,1.03125 l 16.1875,0 c 0.64611,0.0835 1.3125,-0.47352 1.3125,-1.125 0,-0.65149 -0.66639,-1.23977 -1.3125,-1.15625 l -16.1875,0 c -0.0727,-0.007 -0.14605,-0.007 -0.21875,0 z M 24,977.23718 c -0.60549,0.0244 -1.14954,0.61327 -1.125,1.21875 0.0245,0.60549 0.61327,1.11841 1.21875,1.09375 l 51.8125,0 c 0.60541,0 1.15625,-0.55084 1.15625,-1.15625 0,-0.60541 -0.55084,-1.15625 -1.15625,-1.15625 l -51.8125,0 c -0.0312,-10e-4 -0.06255,-10e-4 -0.09375,0 z m -0.125,6.75 c -0.55983,0.10284 -0.99184,0.6834 -0.9375,1.25 0.0543,0.5666 0.58708,1.03667 1.15625,1.03125 l 51.8125,0 c 0.64611,0.0835 1.3125,-0.47352 1.3125,-1.125 0,-0.65149 -0.66639,-1.23977 -1.3125,-1.15625 l -51.8125,0 c -0.0727,-0.007 -0.14605,-0.007 -0.21875,0 z m 0,6.71875 c -0.55983,0.10284 -0.99184,0.6834 -0.9375,1.25 0.0543,0.5666 0.58708,1.03667 1.15625,1.03125 l 51.8125,0 c 0.64611,0.0835 1.3125,-0.47352 1.3125,-1.125 0,-0.65149 -0.66639,-1.23977 -1.3125,-1.15625 l -51.8125,0 c -0.0727,-0.007 -0.14605,-0.007 -0.21875,0 z M 24,997.42468 c -0.60549,0.0244 -1.14954,0.61327 -1.125,1.21875 0.0245,0.60549 0.61327,1.11841 1.21875,1.09375 l 51.8125,0 c 0.60541,0 1.15625,-0.55084 1.15625,-1.15625 0,-0.60541 -0.55084,-1.15625 -1.15625,-1.15625 l -51.8125,0 c -0.0312,-10e-4 -0.06255,-10e-4 -0.09375,0 z m 42.28125,5.59372 c -0.74401,0 -1.50206,0.2522 -2.0625,0.8125 l -0.3125,0.3125 -39.8125,0 c -0.60541,0 -1.15625,0.5509 -1.15625,1.1563 0,0.6054 0.55084,1.1562 1.15625,1.1562 l 37.5,0 -4.4375,4.4375 -33.0625,0 c -0.0727,-0.01 -0.14605,-0.01 -0.21875,0 -0.55983,0.1029 -0.99184,0.6834 -0.9375,1.25 0.0543,0.5666 0.58708,1.0367 1.15625,1.0313 l 30.8125,0 -4.4375,4.4375 -26.375,0 c -0.0312,-10e-4 -0.06255,-10e-4 -0.09375,0 -0.60549,0.024 -1.14954,0.6133 -1.125,1.2187 0.0245,0.6055 0.61327,1.1184 1.21875,1.0938 l 24.09375,0 a 1.150115,1.150115 0 0 0 -0.0625,0.031 1.150115,1.150115 0 0 0 0,0.031 1.150115,1.150115 0 0 0 -0.03125,0.062 1.150115,1.150115 0 0 0 -0.03125,0.062 1.150115,1.150115 0 0 0 -0.03125,0.031 1.150115,1.150115 0 0 0 0,0.062 1.150115,1.150115 0 0 0 -0.03125,0.062 1.150115,1.150115 0 0 0 0,0.031 1.150115,1.150115 0 0 0 -0.03125,0.031 l -0.03125,0.1875 -2.46875,10.75 a 1.150115,1.150115 0 0 0 1.375,1.375 l 10.78125,-2.5 0.125,-0.031 a 1.150115,1.150115 0 0 0 0.3125,-0.125 1.1524431,1.1524431 0 0 0 0.25,-0.1875 l 0.09375,-0.094 a 1.1524431,1.1524431 0 0 0 0.0625,-0.094 l 9.71875,-9.6875 7.71875,0 c 0.60541,0 1.15625,-0.5509 1.15625,-1.1563 0,-0.6054 -0.55084,-1.1562 -1.15625,-1.1562 l -5.40625,0 3.75,-3.75 c 0.20679,-0.2068 0.36951,-0.4401 0.5,-0.6875 l 1.15625,0 c 0.64611,0.083 1.3125,-0.4735 1.3125,-1.125 0,-0.6515 -0.66639,-1.2398 -1.3125,-1.1563 l -1,0 c -0.13723,-0.4057 -0.33587,-0.8046 -0.65625,-1.125 l -3.28125,-3.3125 4.9375,0 c 0.0727,0.01 0.14605,0.01 0.21875,0 0.12024,-0.023 0.23675,-0.065 0.34375,-0.125 0.7636,-0.4363 0.64148,-1.8 -0.1875,-2.0937 -0.0302,-0.022 -0.06155,-0.043 -0.09375,-0.062 -0.092,-0.022 -0.18669,-0.033 -0.28125,-0.031 l -7.25,0 -0.3125,-0.3125 c -0.56044,-0.5604 -1.31849,-0.8125 -2.0625,-0.8125 z m 0,2.25 c 0.149,0 0.28238,0.064 0.40625,0.1875 l 5.9375,5.9375 c 0.24777,0.2478 0.24777,0.5961 0,0.8438 l -15.125,15.125 -6.78125,-6.75 15.125,-15.1563 c 0.12388,-0.1238 0.2885,-0.1875 0.4375,-0.1875 z m -16.53125,17.625 5.46875,5.4375 -3.1875,0.75 -3.03125,-3.0312 0.75,-3.1563 z m -1.34375,5.8125 0.96875,0.9688 -1.28125,0.3125 0.3125,-1.2813 z m -24.53125,2.375 c -0.55983,0.1029 -0.99184,0.6834 -0.9375,1.25 0.0543,0.5666 0.58708,1.0367 1.15625,1.0313 l 15.9375,0 c 0.64611,0.083 1.3125,-0.4735 1.3125,-1.125 0,-0.6515 -0.66639,-1.2398 -1.3125,-1.1563 l -15.9375,0 c -0.0727,-0.01 -0.14605,-0.01 -0.21875,0 z" visibility="visible" display="inline" overflow="visible" id="path3496" inkscape:connector-curvature="0"/>
  </g>
</svg>