<?xml version="1.0" encoding="UTF-8"?>
<svg width="700pt" height="700pt" version="1.1" viewBox="0 0 700 700" xmlns="http://www.w3.org/2000/svg" xmlns:xlink="http://www.w3.org/1999/xlink">
 <defs>
  <symbol id="w" overflow="visible">
   <path d="m0.03125 0h-0.015625-0.015625v-0.015625-0.015625h0.015625 0.015625-0.015625v0.015625 0.015625h0.015625v-0.015625z"/>
  </symbol>
  <symbol id="e" overflow="visible">
   <path d="m0.015625-0.015625v0.015625h-0.015625v-0.03125h0.015625v0.015625-0.015625z"/>
  </symbol>
  <symbol id="b" overflow="visible">
   <path d="m0.03125-0.015625h-0.015625v0.015625c0.0078125 0 0.015625-0.0039062 0.015625-0.015625v0.015625h-0.015625-0.015625v-0.015625l0.015625-0.015625v0.015625h0.015625z"/>
  </symbol>
  <symbol id="a" overflow="visible">
   <path d="m0.015625-0.015625v0.015625-0.015625zm0.015625 0v0.015625h-0.015625-0.015625v-0.015625h0.015625-0.015625v-0.015625h0.015625v0.015625h0.015625z"/>
  </symbol>
  <symbol id="d" overflow="visible">
   <path d="m0.015625-0.03125v0.015625 0.015625h-0.015625v-0.015625-0.015625z"/>
  </symbol>
  <symbol id="l" overflow="visible">
   <path d="m0.015625-0.015625v-0.015625h0.015625v0.03125h-0.015625-0.015625v-0.015625l0.015625-0.015625v0.015625zm0 0.015625v-0.015625 0.015625z"/>
  </symbol>
  <symbol id="k" overflow="visible">
   <path d="m0.015625 0v-0.015625 0.015625zm0-0.015625v-0.015625c0.0078125 0 0.015625 0.0078125 0.015625 0.015625v0.015625h-0.015625-0.015625v-0.03125h0.015625z"/>
  </symbol>
  <symbol id="j" overflow="visible">
   <path d="m0-0.03125h0.015625v0.015625-0.015625h0.015625l-0.015625 0.03125v0.015625h-0.015625v-0.015625h0.015625z"/>
  </symbol>
  <symbol id="i" overflow="visible">
   <path d="m0.015625-0.03125v0.015625 0.015625h0.015625v-0.015625c0-0.0078125-0.0078125-0.015625-0.015625-0.015625zm0 0h0.015625v0.015625 0.015625h-0.015625-0.015625v-0.015625-0.015625h0.015625z"/>
  </symbol>
  <symbol id="v" overflow="visible">
   <path d="m0-0.03125h0.015625v0.03125h-0.015625z"/>
  </symbol>
  <symbol id="f" overflow="visible">
   <path d="m0.03125-0.015625v0.015625h-0.015625v-0.015625 0.015625h-0.015625v-0.03125h0.015625v0.015625-0.015625c0.0078125 0 0.015625 0.0078125 0.015625 0.015625z"/>
  </symbol>
  <symbol id="h" overflow="visible">
   <path d="m0-0.03125h0.015625 0.015625v0.015625h-0.015625v0.015625h-0.015625zm0.015625 0v0.015625-0.015625z"/>
  </symbol>
  <symbol id="g" overflow="visible">
   <path d="m0.03125-0.03125v0.015625h-0.015625c0.0078125 0 0.015625 0.0078125 0.015625 0.015625h-0.015625-0.015625 0.015625v-0.015625h-0.015625l0.015625-0.015625h0.015625z"/>
  </symbol>
  <symbol id="c" overflow="visible">
   <path d="m0.015625-0.015625v0.015625-0.015625zm0-0.015625v0.015625h0.015625c0 0.011719-0.0078125 0.015625-0.015625 0.015625h-0.015625v-0.015625l0.015625-0.015625z"/>
  </symbol>
  <symbol id="u" overflow="visible">
   <path d="m0-0.03125h0.015625v0.015625-0.015625h0.015625l-0.015625 0.03125z"/>
  </symbol>
  <symbol id="t" overflow="visible">
   <path d="m0-0.03125h0.015625v0.015625-0.015625h0.015625l-0.015625 0.015625 0.015625 0.015625h-0.015625v-0.015625 0.015625h-0.015625z"/>
  </symbol>
  <symbol id="s" overflow="visible">
   <path d="m0.015625-0.03125v0.03125h-0.015625v-0.03125h0.015625z"/>
  </symbol>
  <symbol id="r" overflow="visible">
   <path d="m0.03125-0.015625v-0.015625c0.0078125 0 0.015625 0.0078125 0.015625 0.015625v0.015625h-0.015625v-0.015625 0.015625h-0.015625v-0.015625 0.015625h-0.015625v-0.03125h0.015625v0.015625-0.015625 0.015625h0.015625z"/>
  </symbol>
  <symbol id="q" overflow="visible">
   <path d="m0.03125-0.015625v0.015625h-0.015625v-0.015625 0.015625h-0.015625v-0.03125h0.015625v0.015625-0.015625c0.0078125 0 0.015625 0.0078125 0.015625 0.015625z"/>
  </symbol>
  <symbol id="p" overflow="visible">
   <path d="m0-0.03125h0.015625l0.015625 0.015625v-0.015625 0.03125l-0.015625-0.015625v0.015625h-0.015625z"/>
  </symbol>
  <symbol id="o" overflow="visible">
   <path d="m0-0.015625v-0.015625h0.015625v0.015625 0.015625-0.015625-0.015625h0.015625v0.03125h-0.015625-0.015625v-0.015625z"/>
  </symbol>
  <symbol id="n" overflow="visible">
   <path d="m0-0.03125h0.015625v0.03125h-0.015625v0.015625zm0 0h0.015625z"/>
  </symbol>
  <symbol id="m" overflow="visible">
   <path d="m0.03125-0.03125v0.015625h-0.015625v0.015625h0.015625-0.015625-0.015625v-0.015625l0.015625-0.015625h0.015625z"/>
  </symbol>
 </defs>
 <g>
  <path d="m614.66 382.92c1.6602 1.207 2.0234 3.5312 0.81641 5.1914-1.207 1.6602-3.5312 2.0234-5.1914 0.81641-16.305-11.883-30.367-21.395-44.449-28.941-13.973-7.4883-28.012-13.055-44.383-17.109-31.496-7.8047-56.656-4.7188-79.305 4.9297-22.887 9.75-43.449 26.277-65.395 45.094-30.148 25.852-55.969 34.145-88.859 44.711-10.32 3.3164-21.352 6.8594-33.465 11.262-1.9375 0.70312-4.2266 1.7852-6.6094 3.1992-3.9688 2.3555-8.0781 5.5742-11.027 9.4023-0.058594 0.085938-0.12109 0.16797-0.1875 0.25l-0.007813 0.007813c-0.30469 0.40625-0.59766 0.82031-0.875 1.2383-2.707 4.0938-3.957 8.8438-2.1172 13.91 0.36719 1.0078 0.86328 2.0547 1.5078 3.1406 2.3125 3.8945 6.3398 6.0156 11.07 7.0625 5.2305 1.1602 11.32 1.0469 17.086 0.50391l50.16-4.7031c1.8789-0.17578 3.5977-0.5 5.25-1.0039 1.6484-0.5 3.2539-1.1875 4.918-2.0938l23.895-12.973c2.9492-1.6016 6.5195-2.6602 10.176-3.2656 4.0391-0.66797 8.2617-0.78906 11.859-0.46875l36.125 3.2109c2.0469 0.17578 3.5586 1.9805 3.3828 4.0234-0.17578 2.0469-1.9805 3.5586-4.0234 3.3828l-36.125-3.2109c-3.0039-0.26562-6.5703-0.16016-10.02 0.41016-2.9023 0.48047-5.6602 1.2812-7.8125 2.4492l-23.895 12.973c-2.1016 1.1406-4.168 2.0195-6.3203 2.6758-2.1445 0.65234-4.3516 1.0742-6.7383 1.2969l-50.16 4.7031c-6.3945 0.59766-13.238 0.70703-19.359-0.65234-6.6211-1.4688-12.363-4.6094-15.883-10.535-0.86719-1.4609-1.5586-2.9258-2.0898-4.3945-2.5938-7.1367-1.2305-13.695 2.1445-19.352l-71.758-59.254c-5.043-4.1641-11.137-6.207-17.195-6.1406-0.52344 0.003906-1.043 0.027343-1.5625 0.066406-0.09375 0.015625-0.1875 0.023437-0.28516 0.03125-0.070312 0.003906-0.14062 0.007813-0.21094 0.007813-5.3516 0.48437-10.594 2.6211-14.98 6.4062-2.8867 2.4922 0.66406 6.6289 4.7969 11.441 0.33203 0.38672 0.66016 0.76562 1.6484 1.9453 0.035156 0.039063 0.070312 0.078125 0.10547 0.11719l34.539 39.777c0.066406 0.070312 0.13281 0.14844 0.19531 0.22266l43.191 49.738c2.125 2.4453 4.8164 4.9141 7.7422 6.8984 2.4492 1.6602 5.0625 2.9766 7.6289 3.6289l114.41 29.07c6.8828 1.75 14.434 0.72266 21.742-1.6289 7.5742-2.4375 14.902-6.3086 21.031-10.062 13.746-8.4258 26.434-17.234 38.316-25.484 52.027-36.125 89.082-61.855 146.57-10.664 1.5391 1.3711 1.6758 3.7266 0.30469 5.2656-1.3711 1.5391-3.7266 1.6758-5.2656 0.30469-53.102-47.281-88.148-22.945-137.35 11.219-11.891 8.2539-24.582 17.066-38.695 25.719-6.5234 4-14.379 8.1367-22.633 10.793-8.5234 2.7461-17.461 3.9062-25.855 1.7734l-114.41-29.07c-3.3984-0.86328-6.8047-2.5664-9.9609-4.707-3.5039-2.375-6.6992-5.2969-9.2031-8.1797l-42.793-49.277-58.828-29.613-0.003907 0.003906c-1.3438-0.67188-1.8789-0.92969-2.4062-1.1875-9.2969-4.5234-17.289-8.4102-12.402-18.531 3.6797-7.6133 9.1758-13.477 15.848-16.785 6.3672-3.1562 13.73-3.9688 21.539-1.7539 3.5859-2.1758 7.4688-3.6328 11.457-4.3633 0.10937-1.1172 0.30469-2.1953 0.55469-3.2031 0.62891-2.5234 1.6758-4.707 2.7383-6.0391 4.2578-5.3398 9.9414-9.1875 16.266-11.18 6.1953-1.9492 13.008-2.1133 19.703-0.15234l43.137 12.645 0.007813-0.011719c3.8984-5.5938 9.3203-9.793 15.508-12.191 6.0625-2.3477 12.855-2.9531 19.656-1.4297l101.15 22.688c6.8672 0.58984 11.824 0.023438 16.219-1.7148 4.5352-1.793 8.6875-4.9062 13.812-9.3242 0.28516-0.24609 0.59375-0.44141 0.92187-0.58594 18.172-15.043 35.914-27.98 55.539-36.34 24.07-10.258 50.73-13.555 84-5.3086 16.984 4.2109 31.57 9.9922 46.105 17.781 14.422 7.7305 28.75 17.414 45.324 29.496zm-293.57-202.93v-7.4648h7.4648v7.4648zm-89.602 0v-7.4648h7.4648v7.4648zm29.867 0v-7.4648h7.4648v7.4648zm29.867 0v-7.4648h7.4648v7.4648zm60.523-58.414c0.14062-0.30078 0.31641-0.57031 0.51953-0.8125v-0.125c0-7.7617 2.9453-15.527 8.8398-21.422l79.984-79.984c5.8945-5.8945 13.66-8.8398 21.422-8.8398s15.527 2.9453 21.418 8.8398l9.1484 9.1484c5.8945 5.8945 8.8398 13.66 8.8398 21.418 0 7.7617-2.9453 15.527-8.8398 21.422l-79.984 79.984c-5.8945 5.8945-13.66 8.8398-21.422 8.8398-0.22656 0-0.45312-0.003906-0.67969-0.007812l-1.7656 0.83594c-7.457 3.5352-18.98 8.9961-29.289 12.363-0.47656 0.34766-1.0469 0.58984-1.6719 0.67969-0.20312 0.027344-0.40625 0.039063-0.60547 0.035156-8.3047 2.4961-15.527 3.3711-18.73 0.39453-8.4258-7.8398 4.8945-36.023 12.039-51.133l0.77344-1.6367zm3.0039 11.121c-2.7812 5.9844-5.8984 12.945-8.2148 19.191 3 1.1484 5.9141 3.1562 8.3398 5.6211 2.3125 2.3477 4.2344 5.1562 5.418 8.0781 6.1406-2.3828 13.023-5.4844 18.887-8.2148-3.2383-1.457-6.2734-3.5156-8.9258-6.168l-9.1484-9.1484c-2.7695-2.7695-4.8906-5.957-6.3594-9.3594zm-10.547 26.254c-1.3398 4.8398-1.6797 8.5586-0.19141 9.9414 1.1875 1.1055 4.668 0.58594 9.2617-0.82813-0.80469-1.8711-2.1172-3.7266-3.7031-5.3359-1.6406-1.668-3.5195-3.0156-5.3633-3.7812zm143.6-125.29-9.1484-9.1484c-4.4336-4.4336-10.285-6.6523-16.141-6.6523-3.7969 0-7.5938 0.93359-11.004 2.8008 4.0547 5.6797 6.4648 11.723 6.9961 17.469 0.22266 2.3828 0.125 4.7109-0.29687 6.9414 3.3789-0.64844 6.9688-0.53516 10.629 0.28906 6.8828 1.5469 13.996 5.6406 20.246 11.891 0.96094 0.96094 1.9062 1.9805 2.8359 3.0586 1.6914-3.2773 2.5352-6.8906 2.5352-10.504 0-5.8555-2.2188-11.707-6.6523-16.141zm-42.156-8.418-79.258 79.258c-4.4336 4.4336-6.6523 10.285-6.6523 16.141s2.2188 11.707 6.6523 16.141l9.1484 9.1484c4.4336 4.4336 10.285 6.6523 16.141 6.6523 5.8555 0 11.707-2.2188 16.141-6.6523l79.5-79.5c-1.1172-1.3789-2.293-2.6797-3.5156-3.9023-5.2578-5.2578-11.086-8.668-16.598-9.9062-5.1055-1.1484-9.9375-0.39844-13.672 2.5469-0.43359 0.33984-0.87109 0.73047-1.3125 1.1758l-17.723 17.723c-1.457 1.457-3.8203 1.457-5.2773 0-1.457-1.457-1.457-3.8203 0-5.2773l17.723-17.723c3.2852-3.2852 4.5938-7.6016 4.1602-12.262-0.40625-4.3633-2.2812-9.0469-5.4531-13.559zm-44.855 222.16c2.0625 0 3.7344 1.6719 3.7344 3.7344s-1.6719 3.7344-3.7344 3.7344h-114.58c-2.0625 0-3.7344-1.6719-3.7344-3.7344s1.6719-3.7344 3.7344-3.7344zm31.527-37.84c2.0625 0 3.7344 1.6719 3.7344 3.7344s-1.6719 3.7344-3.7344 3.7344h-177.64c-2.0625 0-3.7344-1.6719-3.7344-3.7344s1.6719-3.7344 3.7344-3.7344zm57.934-58.074c-1.457-1.457-1.457-3.8203 0-5.2773 1.457-1.457 3.8203-1.457 5.2773 0 8.5742 8.5742 12.863 19.871 12.863 31.168s-4.2891 22.594-12.863 31.168l-125.61 125.61c-8.5742 8.5742-19.871 12.863-31.168 12.863s-22.594-4.2891-31.168-12.863l-125.61-125.61c-8.5742-8.5742-12.863-19.871-12.863-31.168s4.2891-22.594 12.863-31.168l125.61-125.61c8.5742-8.5742 19.871-12.863 31.168-12.863s22.594 4.2891 31.168 12.863c1.457 1.457 1.457 3.8203 0 5.2773s-3.8203 1.457-5.2773 0c-7.1172-7.1172-16.5-10.676-25.891-10.676-9.3867 0-18.773 3.5586-25.891 10.676l-125.61 125.61c-7.1172 7.1172-10.676 16.5-10.676 25.891 0 9.3867 3.5586 18.773 10.676 25.891l125.61 125.61c7.1172 7.1172 16.5 10.676 25.891 10.676 9.3867 0 18.773-3.5586 25.891-10.676l125.61-125.61c7.1172-7.1172 10.676-16.5 10.676-25.891 0-9.3867-3.5586-18.773-10.676-25.891zm-319.83 250.74c0.3125 0.003906 0.62891 0.050781 0.94531 0.14062l88.098 25.043c1.9805 0.55469 3.1367 2.6133 2.582 4.5938-0.55469 1.9805-2.6133 3.1367-4.5938 2.582l-72.965-20.738 48.797 40.293c3.2188-3.4141 7.0508-6.2852 10.746-8.4805 2.7617-1.6406 5.4961-2.9219 7.8633-3.7852 12.188-4.4336 23.316-8.0039 33.727-11.352 27.711-8.9023 50.277-16.152 74.617-33.996-2.5078 0.125-5.2266 0.054688-8.2422-0.20703-0.22266-0.007813-0.44531-0.039063-0.67188-0.089844l-101.37-22.734c-5.3164-1.1914-10.617-0.72266-15.34 1.1094-4.0391 1.5625-7.6641 4.1289-10.527 7.5078l89.184 26.145c1.9727 0.57812 3.1016 2.6484 2.5234 4.6211-0.57812 1.9727-2.6484 3.1016-4.6211 2.5234l-139.99-41.039c-5.2227-1.5312-10.543-1.4023-15.387 0.125-4.9141 1.5469-9.332 4.5391-12.648 8.6992-0.46484 0.58203-0.96875 1.7266-1.3398 3.2109-0.070312 0.28516-0.13281 0.57422-0.19141 0.87109 7.1445 0.32031 14.215 2.9141 20.129 7.8008l8.6719 7.1602zm-24.465 42.977-22.27-25.645c-0.050781-0.0625-0.10156-0.12109-0.15234-0.1875l-1.6367-1.9062c-5.8516-6.8125-10.984-12.793-6.6328-19.066-3.9375-0.24219-7.6328 0.54297-10.941 2.1836-5.1641 2.5625-9.4766 7.2227-12.434 13.344-1.6562 3.4336 3.2344 5.8125 8.9297 8.582 1.0859 0.52734 2.1914 1.0664 2.4922 1.2188l-0.003906 0.007813 42.645 21.465z"/>
  <use x="70" y="560.140625" xlink:href="#w"/>
  <use x="70.035156" y="560.140625" xlink:href="#e"/>
  <use x="70.058594" y="560.140625" xlink:href="#b"/>
  <use x="70.089844" y="560.140625" xlink:href="#a"/>
  <use x="70.121094" y="560.140625" xlink:href="#d"/>
  <use x="70.144531" y="560.140625" xlink:href="#b"/>
  <use x="70.175781" y="560.140625" xlink:href="#l"/>
  <use x="70.222656" y="560.140625" xlink:href="#k"/>
  <use x="70.257812" y="560.140625" xlink:href="#j"/>
  <use x="70.304688" y="560.140625" xlink:href="#i"/>
  <use x="70.34375" y="560.140625" xlink:href="#v"/>
  <use x="70.359375" y="560.140625" xlink:href="#b"/>
  <use x="70.390625" y="560.140625" xlink:href="#f"/>
  <use x="70.425781" y="560.140625" xlink:href="#a"/>
  <use x="70.472656" y="560.140625" xlink:href="#h"/>
  <use x="70.507812" y="560.140625" xlink:href="#a"/>
  <use x="70.539062" y="560.140625" xlink:href="#f"/>
  <use x="70.570312" y="560.140625" xlink:href="#a"/>
  <use x="70.601562" y="560.140625" xlink:href="#g"/>
  <use x="70.628906" y="560.140625" xlink:href="#c"/>
  <use x="70.664062" y="560.140625" xlink:href="#u"/>
  <use x="70.691406" y="560.140625" xlink:href="#g"/>
  <use x="70.722656" y="560.140625" xlink:href="#t"/>
  <use x="70.75" y="560.140625" xlink:href="#a"/>
  <use x="70" y="560.1875" xlink:href="#s"/>
  <use x="70.019531" y="560.1875" xlink:href="#e"/>
  <use x="70.042969" y="560.1875" xlink:href="#c"/>
  <use x="70.074219" y="560.1875" xlink:href="#r"/>
  <use x="70.140625" y="560.1875" xlink:href="#d"/>
  <use x="70.164062" y="560.1875" xlink:href="#q"/>
  <use x="70.195312" y="560.1875" xlink:href="#b"/>
  <use x="70.242188" y="560.1875" xlink:href="#p"/>
  <use x="70.28125" y="560.1875" xlink:href="#c"/>
  <use x="70.316406" y="560.1875" xlink:href="#o"/>
  <use x="70.347656" y="560.1875" xlink:href="#f"/>
  <use x="70.398438" y="560.1875" xlink:href="#h"/>
  <use x="70.433594" y="560.1875" xlink:href="#e"/>
  <use x="70.453125" y="560.1875" xlink:href="#c"/>
  <use x="70.488281" y="560.1875" xlink:href="#n"/>
  <use x="70.503906" y="560.1875" xlink:href="#b"/>
  <use x="70.535156" y="560.1875" xlink:href="#m"/>
  <use x="70.5625" y="560.1875" xlink:href="#d"/>
 </g>
</svg>
